<svg width="166" height="28" viewBox="0 0 166 28" fill="none" xmlns="http://www.w3.org/2000/svg">
<path d="M0.858 11.848C0.858 10.0453 1.248 8.442 2.028 7.038C2.808 5.61667 3.89133 4.516 5.278 3.736C6.682 2.93867 8.268 2.54 10.036 2.54C12.2027 2.54 14.0573 3.112 15.6 4.256C17.1427 5.4 18.174 6.96 18.694 8.936H13.806C13.442 8.17333 12.922 7.59267 12.246 7.194C11.5873 6.79533 10.8333 6.596 9.984 6.596C8.61467 6.596 7.50533 7.07267 6.656 8.026C5.80667 8.97933 5.382 10.2533 5.382 11.848C5.382 13.4427 5.80667 14.7167 6.656 15.67C7.50533 16.6233 8.61467 17.1 9.984 17.1C10.8333 17.1 11.5873 16.9007 12.246 16.502C12.922 16.1033 13.442 15.5227 13.806 14.76H18.694C18.174 16.736 17.1427 18.296 15.6 19.44C14.0573 20.5667 12.2027 21.13 10.036 21.13C8.268 21.13 6.682 20.74 5.278 19.96C3.89133 19.1627 2.808 18.062 2.028 16.658C1.248 15.254 0.858 13.6507 0.858 11.848ZM25.8627 8.91C26.3827 8.11267 27.0327 7.48867 27.8127 7.038C28.5927 6.57 29.4594 6.336 30.4127 6.336V11.042H29.1907C28.0814 11.042 27.2494 11.2847 26.6947 11.77C26.14 12.238 25.8627 13.07 25.8627 14.266V21H21.4167V6.492H25.8627V8.91ZM47.3578 6.492L38.2578 27.89H33.4738L36.8018 20.506L30.8998 6.492H35.8658L39.2198 15.566L42.5478 6.492H47.3578ZM53.4115 8.546C53.8448 7.87 54.4428 7.324 55.2055 6.908C55.9682 6.492 56.8608 6.284 57.8835 6.284C59.0795 6.284 60.1628 6.58733 61.1335 7.194C62.1042 7.80067 62.8668 8.66733 63.4215 9.794C63.9935 10.9207 64.2795 12.2293 64.2795 13.72C64.2795 15.2107 63.9935 16.528 63.4215 17.672C62.8668 18.7987 62.1042 19.674 61.1335 20.298C60.1628 20.9047 59.0795 21.208 57.8835 21.208C56.8782 21.208 55.9855 21 55.2055 20.584C54.4428 20.168 53.8448 19.6307 53.4115 18.972V27.916H48.9655V6.492H53.4115V8.546ZM59.7555 13.72C59.7555 12.6107 59.4435 11.744 58.8195 11.12C58.2128 10.4787 57.4588 10.158 56.5575 10.158C55.6735 10.158 54.9195 10.4787 54.2955 11.12C53.6888 11.7613 53.3855 12.6367 53.3855 13.746C53.3855 14.8553 53.6888 15.7307 54.2955 16.372C54.9195 17.0133 55.6735 17.334 56.5575 17.334C57.4415 17.334 58.1955 17.0133 58.8195 16.372C59.4435 15.7133 59.7555 14.8293 59.7555 13.72ZM74.698 17.23V21H72.436C70.824 21 69.5673 20.61 68.666 19.83C67.7647 19.0327 67.314 17.7413 67.314 15.956V10.184H65.546V6.492H67.314V2.956H71.76V6.492H74.672V10.184H71.76V16.008C71.76 16.4413 71.864 16.7533 72.072 16.944C72.28 17.1347 72.6267 17.23 73.112 17.23H74.698ZM83.7785 21.208C82.3572 21.208 81.0745 20.9047 79.9305 20.298C78.8038 19.6913 77.9112 18.8247 77.2525 17.698C76.6112 16.5713 76.2905 15.254 76.2905 13.746C76.2905 12.2553 76.6198 10.9467 77.2785 9.82C77.9372 8.676 78.8385 7.80067 79.9825 7.194C81.1265 6.58733 82.4092 6.284 83.8305 6.284C85.2518 6.284 86.5345 6.58733 87.6785 7.194C88.8225 7.80067 89.7238 8.676 90.3825 9.82C91.0412 10.9467 91.3705 12.2553 91.3705 13.746C91.3705 15.2367 91.0325 16.554 90.3565 17.698C89.6978 18.8247 88.7878 19.6913 87.6265 20.298C86.4825 20.9047 85.1998 21.208 83.7785 21.208ZM83.7785 17.36C84.6278 17.36 85.3472 17.048 85.9365 16.424C86.5432 15.8 86.8465 14.9073 86.8465 13.746C86.8465 12.5847 86.5518 11.692 85.9625 11.068C85.3905 10.444 84.6798 10.132 83.8305 10.132C82.9638 10.132 82.2445 10.444 81.6725 11.068C81.1005 11.6747 80.8145 12.5673 80.8145 13.746C80.8145 14.9073 81.0918 15.8 81.6465 16.424C82.2185 17.048 82.9292 17.36 83.7785 17.36ZM92.8452 13.746C92.8452 12.238 93.1485 10.9207 93.7552 9.794C94.3792 8.66733 95.2372 7.80067 96.3292 7.194C97.4385 6.58733 98.7039 6.284 100.125 6.284C101.945 6.284 103.462 6.76067 104.675 7.714C105.906 8.66733 106.712 10.0107 107.093 11.744H102.361C101.963 10.6347 101.191 10.08 100.047 10.08C99.2325 10.08 98.5825 10.4007 98.0972 11.042C97.6119 11.666 97.3692 12.5673 97.3692 13.746C97.3692 14.9247 97.6119 15.8347 98.0972 16.476C98.5825 17.1 99.2325 17.412 100.047 17.412C101.191 17.412 101.963 16.8573 102.361 15.748H107.093C106.712 17.4467 105.906 18.7813 104.675 19.752C103.445 20.7227 101.928 21.208 100.125 21.208C98.7039 21.208 97.4385 20.9047 96.3292 20.298C95.2372 19.6913 94.3792 18.8247 93.7552 17.698C93.1485 16.5713 92.8452 15.254 92.8452 13.746ZM111.707 4.984C110.927 4.984 110.286 4.75867 109.783 4.308C109.298 3.84 109.055 3.268 109.055 2.592C109.055 1.89867 109.298 1.32667 109.783 0.875999C110.286 0.407999 110.927 0.173998 111.707 0.173998C112.47 0.173998 113.094 0.407999 113.579 0.875999C114.082 1.32667 114.333 1.89867 114.333 2.592C114.333 3.268 114.082 3.84 113.579 4.308C113.094 4.75867 112.47 4.984 111.707 4.984ZM113.917 6.492V21H109.471V6.492H113.917ZM121.585 8.91C122.105 8.11267 122.755 7.48867 123.535 7.038C124.315 6.57 125.182 6.336 126.135 6.336V11.042H124.913C123.804 11.042 122.972 11.2847 122.417 11.77C121.863 12.238 121.585 13.07 121.585 14.266V21H117.139V6.492H121.585V8.91ZM127.376 13.746C127.376 12.238 127.68 10.9207 128.286 9.794C128.91 8.66733 129.768 7.80067 130.86 7.194C131.97 6.58733 133.235 6.284 134.656 6.284C136.476 6.284 137.993 6.76067 139.206 7.714C140.437 8.66733 141.243 10.0107 141.624 11.744H136.892C136.494 10.6347 135.722 10.08 134.578 10.08C133.764 10.08 133.114 10.4007 132.628 11.042C132.143 11.666 131.9 12.5673 131.9 13.746C131.9 14.9247 132.143 15.8347 132.628 16.476C133.114 17.1 133.764 17.412 134.578 17.412C135.722 17.412 136.494 16.8573 136.892 15.748H141.624C141.243 17.4467 140.437 18.7813 139.206 19.752C137.976 20.7227 136.459 21.208 134.656 21.208C133.235 21.208 131.97 20.9047 130.86 20.298C129.768 19.6913 128.91 18.8247 128.286 17.698C127.68 16.5713 127.376 15.254 127.376 13.746ZM148.449 1.76V21H144.003V1.76H148.449ZM165.347 13.512C165.347 13.928 165.321 14.3613 165.269 14.812H155.207C155.276 15.7133 155.562 16.4067 156.065 16.892C156.585 17.36 157.217 17.594 157.963 17.594C159.072 17.594 159.843 17.126 160.277 16.19H165.009C164.766 17.1433 164.324 18.0013 163.683 18.764C163.059 19.5267 162.27 20.1247 161.317 20.558C160.363 20.9913 159.297 21.208 158.119 21.208C156.697 21.208 155.432 20.9047 154.323 20.298C153.213 19.6913 152.347 18.8247 151.723 17.698C151.099 16.5713 150.787 15.254 150.787 13.746C150.787 12.238 151.09 10.9207 151.697 9.794C152.321 8.66733 153.187 7.80067 154.297 7.194C155.406 6.58733 156.68 6.284 158.119 6.284C159.523 6.284 160.771 6.57867 161.863 7.168C162.955 7.75733 163.804 8.598 164.411 9.69C165.035 10.782 165.347 12.056 165.347 13.512ZM160.797 12.342C160.797 11.5793 160.537 10.9727 160.017 10.522C159.497 10.0713 158.847 9.846 158.067 9.846C157.321 9.846 156.689 10.0627 156.169 10.496C155.666 10.9293 155.354 11.5447 155.233 12.342H160.797Z" fill="white"/>
</svg>
