<svg width="410" height="411" viewBox="0 0 410 411" fill="none" xmlns="http://www.w3.org/2000/svg">
<path d="M145.299 205.006C157.353 197.324 170.979 191.907 185.588 189.328C185.206 187.527 184.755 185.767 184.249 184.021C159.171 176.885 139.368 157.182 132.138 132.186C125.537 130.303 118.581 129.279 111.392 129.279C105.912 129.279 100.582 129.88 95.4292 130.985C101.019 162.04 119.578 188.633 145.299 205.006Z" fill="white"/>
<path d="M277.875 132.186C270.645 157.182 250.842 176.885 225.764 184.021C225.258 185.767 224.807 187.541 224.425 189.328C239.034 191.907 252.66 197.324 264.714 205.006C290.435 188.633 308.98 162.04 314.597 130.985C309.445 129.88 304.115 129.279 298.635 129.279C291.419 129.279 284.476 130.303 277.875 132.186Z" fill="white"/>
<path d="M130.788 95.5244C138.045 61.2769 168.549 35.4754 204.998 35.4754C241.447 35.4754 271.951 61.2769 279.208 95.5244C285.522 94.4192 292 93.8052 298.615 93.8052C304.246 93.8052 309.781 94.2281 315.193 95.0468C307.334 41.3561 260.922 0 204.998 0C149.074 0 102.663 41.3561 94.8042 95.0468C100.216 94.2418 105.751 93.8052 111.382 93.8052C118.01 93.8052 124.488 94.4192 130.788 95.5244Z" fill="white"/>
<path d="M184.253 225.992C184.758 224.245 185.209 222.472 185.592 220.684C170.982 218.105 157.357 212.689 145.303 205.007C119.582 221.38 101.036 247.973 95.4194 279.027C100.572 280.133 105.902 280.733 111.382 280.733C118.584 280.733 125.527 279.71 132.128 277.827C139.371 252.83 159.174 233.128 184.253 225.992Z" fill="white"/>
<path d="M279.208 314.49C271.951 348.751 241.447 374.539 204.998 374.539C168.549 374.539 138.045 348.737 130.788 314.49C124.475 315.595 117.997 316.209 111.382 316.209C105.751 316.209 100.216 315.786 94.8042 314.967C102.663 368.658 149.074 410.014 204.998 410.014C260.922 410.014 307.334 368.658 315.193 314.967C309.781 315.772 304.246 316.209 298.615 316.209C291.987 316.209 285.509 315.595 279.208 314.49Z" fill="white"/>
<path d="M264.694 205.007C252.64 212.689 239.014 218.105 224.405 220.684C224.787 222.485 225.238 224.245 225.744 225.992C250.822 233.128 270.625 252.83 277.855 277.827C284.456 279.71 291.412 280.733 298.601 280.733C304.081 280.733 309.411 280.133 314.564 279.027C308.974 247.973 290.415 221.38 264.694 205.007Z" fill="white"/>
<path d="M410.001 205.007C410.001 149.311 368.783 103.056 315.196 95.047C315.975 100.327 316.385 105.717 316.385 111.202C316.385 117.956 315.742 124.56 314.581 130.986C348.761 138.327 374.468 168.727 374.468 205.007C374.468 241.288 348.761 271.687 314.581 279.028C315.742 285.454 316.385 292.058 316.385 298.812C316.385 304.297 315.975 309.687 315.196 314.967C368.783 306.958 410.001 260.703 410.001 205.007Z" fill="white"/>
<path d="M205.002 144.878C212.806 156.939 218.327 170.584 220.965 185.238C222.578 184.897 224.177 184.487 225.748 184.037C232.978 159.041 252.781 139.338 277.859 132.202C279.786 125.53 280.839 118.503 280.839 111.217C280.839 105.841 280.265 100.602 279.199 95.5396C248.148 101.011 221.498 119.363 205.002 144.878Z" fill="white"/>
<path d="M225.748 225.989C224.177 225.539 222.578 225.13 220.965 224.788C218.314 239.429 212.792 253.087 205.002 265.149C221.498 290.664 248.148 309.015 279.212 314.487C280.278 309.425 280.852 304.185 280.852 298.809C280.852 291.523 279.8 284.496 277.873 277.824C252.795 270.688 232.992 250.986 225.748 225.989Z" fill="white"/>
<path d="M184.253 184.021C185.825 184.471 187.424 184.881 189.036 185.222C191.688 170.581 197.209 156.923 204.999 144.862C188.503 119.347 161.853 100.995 130.789 95.5237C129.723 100.586 129.149 105.825 129.149 111.201C129.149 118.487 130.201 125.514 132.128 132.186C157.207 139.322 177.01 159.025 184.253 184.021Z" fill="white"/>
<path d="M95.4206 279.028C61.2403 271.687 35.5333 241.301 35.5333 205.007C35.5333 168.713 61.2403 138.327 95.4206 130.986C94.2589 124.56 93.6166 117.956 93.6166 111.202C93.6166 105.717 94.0266 100.327 94.8056 95.047C41.2186 103.056 0 149.311 0 205.007C0 260.703 41.2186 306.958 94.8056 314.967C94.0266 309.687 93.6166 304.297 93.6166 298.812C93.6166 292.058 94.2589 285.454 95.4206 279.028Z" fill="white"/>
<path d="M205.005 265.138C197.202 253.076 191.68 239.432 189.043 224.777C187.43 225.119 185.831 225.528 184.259 225.978C177.03 250.975 157.227 270.677 132.148 277.813C130.221 284.485 129.169 291.512 129.169 298.798C129.169 304.174 129.743 309.414 130.809 314.476C161.86 309.004 188.51 290.653 205.005 265.138Z" fill="white"/>
</svg>
