<svg id="Layer_1" data-name="Layer 1" xmlns="http://www.w3.org/2000/svg" viewBox="0 0 222.71 41.05"><defs><style>.cls-1{fill:#fff;}</style></defs><path class="cls-1" d="M7140.72,7197.8a9.76,9.76,0,0,1,1.17-4.81,8.32,8.32,0,0,1,3.25-3.3,9.46,9.46,0,0,1,4.76-1.2,9.13,9.13,0,0,1,5.57,1.72,8.22,8.22,0,0,1,3.09,4.68h-4.89a3.89,3.89,0,0,0-1.56-1.74,4.58,4.58,0,0,0-5.59.83,6.38,6.38,0,0,0,0,7.64,4.6,4.6,0,0,0,5.59.84,3.87,3.87,0,0,0,1.56-1.75h4.89a8.22,8.22,0,0,1-3.09,4.68,9.18,9.18,0,0,1-5.57,1.69,9.65,9.65,0,0,1-4.76-1.17,8.45,8.45,0,0,1-3.25-3.3A9.71,9.71,0,0,1,7140.72,7197.8Zm25-2.94a5.8,5.8,0,0,1,2-1.87,5,5,0,0,1,2.6-.7V7197h-1.22a3.75,3.75,0,0,0-2.5.72,3.16,3.16,0,0,0-.83,2.5V7207h-4.45v-14.5h4.45Zm21.49-2.41-9.1,21.39h-4.78l3.33-7.38-5.9-14h5l3.36,9.07,3.32-9.07Zm6.06,2.05a4.81,4.81,0,0,1,1.79-1.64,5.58,5.58,0,0,1,2.68-.62,6,6,0,0,1,3.25.91,6.26,6.26,0,0,1,2.29,2.6,8.57,8.57,0,0,1,.86,3.92,8.77,8.77,0,0,1-.86,4,6.45,6.45,0,0,1-2.29,2.62,6,6,0,0,1-3.25.91,5.67,5.67,0,0,1-2.68-.62,4.91,4.91,0,0,1-1.79-1.61v8.94h-4.45v-21.42h4.45Zm6.34,5.17a3.55,3.55,0,0,0-.93-2.6,3,3,0,0,0-2.27-1,3.05,3.05,0,0,0-2.26,1,4.26,4.26,0,0,0,0,5.26,3.15,3.15,0,0,0,4.53,0A3.73,3.73,0,0,0,7199.62,7199.67Zm14.94,3.51V7207h-2.26a5.58,5.58,0,0,1-3.77-1.17,4.91,4.91,0,0,1-1.35-3.87v-5.77h-1.77v-3.69h1.77v-3.54h4.45v3.54h2.91v3.69h-2.91V7202a1.21,1.21,0,0,0,.31.94,1.52,1.52,0,0,0,1,.28Zm9.08,4a8,8,0,0,1-3.84-.91,6.7,6.7,0,0,1-2.68-2.6,7.84,7.84,0,0,1-1-3.95,7.74,7.74,0,0,1,1-3.93,6.7,6.7,0,0,1,2.71-2.62,8.58,8.58,0,0,1,7.69,0,6.7,6.7,0,0,1,2.71,2.62,7.65,7.65,0,0,1,1,3.93,7.57,7.57,0,0,1-1,3.95,6.64,6.64,0,0,1-2.73,2.6A8,8,0,0,1,7223.64,7207.16Zm0-3.85a2.87,2.87,0,0,0,2.16-.93,3.69,3.69,0,0,0,.91-2.68,3.77,3.77,0,0,0-.88-2.68,2.77,2.77,0,0,0-2.13-.93,2.81,2.81,0,0,0-2.16.93,3.78,3.78,0,0,0-.86,2.68,3.94,3.94,0,0,0,.83,2.68A2.79,2.79,0,0,0,7223.64,7203.31Zm9.07-3.61a8.17,8.17,0,0,1,.91-3.95,6.52,6.52,0,0,1,2.58-2.6,7.7,7.7,0,0,1,3.79-.91,7.15,7.15,0,0,1,4.55,1.43,6.72,6.72,0,0,1,2.42,4h-4.73a2.29,2.29,0,0,0-2.32-1.67,2.34,2.34,0,0,0-1.95,1,4.34,4.34,0,0,0-.72,2.7,4.48,4.48,0,0,0,.72,2.73,2.37,2.37,0,0,0,1.95.94,2.29,2.29,0,0,0,2.32-1.67H7247a6.82,6.82,0,0,1-2.42,4,7.12,7.12,0,0,1-4.55,1.45,7.7,7.7,0,0,1-3.79-.91,6.46,6.46,0,0,1-2.58-2.6A8.14,8.14,0,0,1,7232.71,7199.7Zm18.86-8.76a2.76,2.76,0,0,1-1.92-.68,2.28,2.28,0,0,1-.73-1.71,2.22,2.22,0,0,1,.73-1.72,2.69,2.69,0,0,1,1.92-.7,2.59,2.59,0,0,1,1.88.7,2.21,2.21,0,0,1,.75,1.72,2.26,2.26,0,0,1-.75,1.71A2.66,2.66,0,0,1,7251.57,7190.94Zm2.21,1.51V7207h-4.44v-14.5Zm7.67,2.41a5.8,5.8,0,0,1,1.95-1.87,5,5,0,0,1,2.6-.7V7197h-1.22a3.75,3.75,0,0,0-2.5.72,3.16,3.16,0,0,0-.83,2.5V7207H7257v-14.5h4.44Zm5.79,4.84a8.29,8.29,0,0,1,.91-3.95,6.52,6.52,0,0,1,2.58-2.6,7.73,7.73,0,0,1,3.79-.91,7.15,7.15,0,0,1,4.55,1.43,6.72,6.72,0,0,1,2.42,4h-4.73a2.29,2.29,0,0,0-2.32-1.67,2.34,2.34,0,0,0-1.95,1,4.34,4.34,0,0,0-.72,2.7,4.48,4.48,0,0,0,.72,2.73,2.37,2.37,0,0,0,1.95.94,2.29,2.29,0,0,0,2.32-1.67h4.73a6.82,6.82,0,0,1-2.42,4,7.1,7.1,0,0,1-4.55,1.45,7.73,7.73,0,0,1-3.79-.91,6.46,6.46,0,0,1-2.58-2.6A8.26,8.26,0,0,1,7267.24,7199.7Zm21.07-12V7207h-4.44v-19.24Zm16.9,11.76a9.85,9.85,0,0,1-.08,1.3h-10.06a3.14,3.14,0,0,0,.86,2.08,2.77,2.77,0,0,0,1.9.7,2.33,2.33,0,0,0,2.31-1.41h4.73a6.34,6.34,0,0,1-1.32,2.58,6.45,6.45,0,0,1-2.37,1.79,7.53,7.53,0,0,1-3.2.65,7.73,7.73,0,0,1-3.79-.91,6.38,6.38,0,0,1-2.6-2.6,7.93,7.93,0,0,1-.94-3.95,8.29,8.29,0,0,1,.91-3.95,6.51,6.51,0,0,1,2.6-2.6,8.45,8.45,0,0,1,7.57,0,6.31,6.31,0,0,1,2.55,2.52A7.65,7.65,0,0,1,7305.21,7199.47Zm-4.55-1.17a2.27,2.27,0,0,0-.78-1.82,3.12,3.12,0,0,0-3.85,0,2.91,2.91,0,0,0-.93,1.85Z" transform="translate(-7082.5 -7179.48)"/><path class="cls-1" d="M7096.8,7200a10.84,10.84,0,0,1,4-1.57c0-.18-.09-.36-.14-.53a7.57,7.57,0,0,1-5.12-5.19,7.31,7.31,0,0,0-2.05-.29,7.4,7.4,0,0,0-1.57.17A11.16,11.16,0,0,0,7096.8,7200Z" transform="translate(-7082.5 -7179.48)"/><path class="cls-1" d="M7109.85,7192.71a7.56,7.56,0,0,1-5.13,5.19c-.05.17-.09.35-.13.53a10.72,10.72,0,0,1,4,1.57,11.12,11.12,0,0,0,4.91-7.41,7.33,7.33,0,0,0-1.57-.17A7.24,7.24,0,0,0,7109.85,7192.71Z" transform="translate(-7082.5 -7179.48)"/><path class="cls-1" d="M7095.37,7189a7.44,7.44,0,0,1,14.61,0,11,11,0,0,1,3.54-.05,10.94,10.94,0,0,0-21.69,0,11,11,0,0,1,1.63-.12A10.86,10.86,0,0,1,7095.37,7189Z" transform="translate(-7082.5 -7179.48)"/><path class="cls-1" d="M7100.63,7202.1c.05-.17.1-.35.14-.53a10.84,10.84,0,0,1-4-1.57,11.16,11.16,0,0,0-4.91,7.41,7.4,7.4,0,0,0,1.57.17,7.24,7.24,0,0,0,2-.29A7.6,7.6,0,0,1,7100.63,7202.1Z" transform="translate(-7082.5 -7179.48)"/><path class="cls-1" d="M7110,7211a7.44,7.44,0,0,1-14.61,0,11,11,0,0,1-3.54.05,10.94,10.94,0,0,0,21.69,0,11,11,0,0,1-3.54-.05Z" transform="translate(-7082.5 -7179.48)"/><path class="cls-1" d="M7108.55,7200a10.79,10.79,0,0,1-4,1.57,4.56,4.56,0,0,0,.13.53,7.56,7.56,0,0,1,5.13,5.19,7.24,7.24,0,0,0,2,.29,7.4,7.4,0,0,0,1.57-.17A11.16,11.16,0,0,0,7108.55,7200Z" transform="translate(-7082.5 -7179.48)"/><path class="cls-1" d="M7122.85,7200a11.09,11.09,0,0,0-9.33-11,10.84,10.84,0,0,1,.12,1.62,10.72,10.72,0,0,1-.18,2,7.6,7.6,0,0,1,0,14.82,10.72,10.72,0,0,1,.18,2,10.84,10.84,0,0,1-.12,1.62A11.09,11.09,0,0,0,7122.85,7200Z" transform="translate(-7082.5 -7179.48)"/><path class="cls-1" d="M7102.68,7194a11.1,11.1,0,0,1,1.57,4,4.05,4.05,0,0,0,.47-.12,7.56,7.56,0,0,1,5.13-5.19,7.66,7.66,0,0,0,.29-2.1,8.12,8.12,0,0,0-.16-1.57A11,11,0,0,0,7102.68,7194Z" transform="translate(-7082.5 -7179.48)"/><path class="cls-1" d="M7104.72,7202.1c-.16,0-.31-.09-.47-.12a11.28,11.28,0,0,1-1.57,4,10.94,10.94,0,0,0,7.3,4.94,7.4,7.4,0,0,0,.16-1.57,7.66,7.66,0,0,0-.29-2.1A7.54,7.54,0,0,1,7104.72,7202.1Z" transform="translate(-7082.5 -7179.48)"/><path class="cls-1" d="M7100.64,7197.9c.15,0,.31.09.47.12a11.1,11.1,0,0,1,1.57-4,11,11,0,0,0-7.31-4.94,7.76,7.76,0,0,0,.13,3.67A7.57,7.57,0,0,1,7100.64,7197.9Z" transform="translate(-7082.5 -7179.48)"/><path class="cls-1" d="M7091.89,7207.41a7.61,7.61,0,0,1,0-14.82,11.66,11.66,0,0,1-.18-2,10.84,10.84,0,0,1,.12-1.62,11.16,11.16,0,0,0,0,22,10.84,10.84,0,0,1-.12-1.62A11.66,11.66,0,0,1,7091.89,7207.41Z" transform="translate(-7082.5 -7179.48)"/><path class="cls-1" d="M7102.68,7206a11.1,11.1,0,0,1-1.57-4,3.59,3.59,0,0,0-.47.12,7.6,7.6,0,0,1-5.13,5.19,7.67,7.67,0,0,0-.3,2.1,8.12,8.12,0,0,0,.16,1.57A11,11,0,0,0,7102.68,7206Z" transform="translate(-7082.5 -7179.48)"/></svg>